<?xml version="1.0" encoding="utf-8"?>
<!-- Generator: Adobe Illustrator 27.5.0, SVG Export Plug-In . SVG Version: 6.00 Build 0)  -->
<svg version="1.1" xmlns="http://www.w3.org/2000/svg" xmlns:xlink="http://www.w3.org/1999/xlink" x="0px" y="0px"
	 viewBox="300 300 600 600" style="enable-background:new 0 0 1200 1200;" xml:space="preserve">
<g id="Graphic_Elements">
	<g>
		<g>
			<path style="fill:#DDA8B6;" d="M754.384,656.026l4.566,0.244l0.405-0.063c10.259,0.159,20.709-1.251,31.008-4.596
				c28.071-9.118,49.476-31.913,58.756-59.699c5.575-16.694,13.008-49.224-1.838-63.13c-10.299-9.647-20.312-2.545-24.681-18.209
				c-3.205-11.492,2.172-18.957-8.689-28.229c-9.692-8.273-23.36-12.362-35.698-14.293c-28.108-4.399-50.446,3.715-74.71,16.262
				c0,0-0.362,0.187-0.362,0.187l-3.549,2.881c-0.53,0.441-1.093,0.853-1.61,1.308l-19.758,16.024l9.137-23.741
				c0.273-0.632,0.487-1.294,0.744-1.933c8.886-22.113,7.147-44.782,0.158-67.17c-5.779-18.516-17.789-34.496-33.786-45.424
				c-10.517-7.184-23.846-15.327-36.954-12.188c-7.817,1.872-16.72,14.331-25.021,11.036c-1.997-0.793-3.509-2.434-5.131-3.845
				c-31.344-27.268-72.467,30.516-79.846,55.926c-2.457,8.464-3.663,17.268-3.663,26.078c0,20.828,9.308,41.788,16.802,61.26
				l-19.758-16.024c-0.517-0.454-1.08-0.866-1.607-1.308l-3.549-2.881l-0.365-0.187c-8.208-6.16-17.489-11.158-27.791-14.51
				c-24.599-8.003-51.289-4.284-73.501,8.66c-8.301,4.837-25.044,14.876-27.666,24.755c-3.083,11.615,7.871,21.957-1.15,34.305
				c-2.461,3.367-5.893,5.867-9.082,8.555c-13.763,11.601-14.165,25.808-9.531,42.115c6.582,23.16,22.723,43.06,43.444,55.148
				c25.322,14.774,53.606,13.549,81.851,11.078c-6.503,0.551-15.195,10.911-21.332,13.98c-0.589,0.352-1.155,0.759-1.735,1.125
				l-3.839,2.485l-0.293,0.291c-8.393,5.903-16.018,13.183-22.385,21.943c-13.366,18.389-18.545,41.421-15.777,63.861
				c1.335,10.827,4.138,25.142,10.589,34.231c7.353,10.361,15.356,6.893,24.898,13.307c7.518,5.054,3.147,12.229,5.958,18.602
				c3.589,8.137,10.651,11.25,19.437,14.724c39.182,15.49,84.837,1.651,109.548-32.361c6.368-8.763,10.938-18.266,13.957-28.07
				l0.181-0.369l1.179-4.419c0.171-0.664,0.385-1.326,0.537-1.999l6.561-24.577l6.565,24.577c0.152,0.672,0.369,1.334,0.534,1.999
				l1.179,4.419l0.184,0.369c3.023,9.804,7.589,19.307,13.953,28.07c15.599,21.477,39.866,35.668,66.228,38.755
				c10.267,1.203,30.661,2.724,39.63-3.677c5.618-4.009,7.467-11.497,12.77-15.487c6.969-5.243,11.574-2.531,18.578-4.893
				c13.706-4.622,22.351-20.909,27.68-33.955c12.384-30.317,9.152-66.421-10.233-93.103c-6.364-8.764-13.99-16.044-22.382-21.947
				l-0.293-0.291l-3.836-2.485c-0.586-0.366-1.146-0.773-1.739-1.125l-21.348-13.839l25.405,1.353
				C753.001,655.977,753.699,655.977,754.384,656.026z M474.419,574.076c-10.243-0.84-20.401-4.432-30.243-7.224
				c-5.084-1.442-10.152-2.936-15.223-4.424c-2.434-0.715-4.868-1.429-7.302-2.142c-1.908-0.559-4.059-1.354-6.13-1.694
				c-1.431,0.528-3.01,0.679-4.662,0.282c-0.411-0.098-0.822-0.197-1.234-0.296c-3.587-0.862-5.459-4.206-5.794-7.609
				c-0.214-2.185,0.917-4.017,2.312-5.581c2.513-2.817,6.441-2.558,9.563-1.233l1.152,0.489c1.051,0.445,1.925,1.386,2.596,2.471
				c1.888,0.911,3.921,1.61,5.846,2.318c2.389,0.878,4.777,1.756,7.166,2.634c4.779,1.757,9.559,3.508,14.322,5.308
				c9.606,3.629,20.088,6.76,28.846,12.211C477.532,570.764,476.923,574.281,474.419,574.076z M590.502,416.841
				c0.171-0.114,0.341-0.227,0.512-0.34c1.936-1.282,5.013-1.282,6.949,0c0.17,0.113,0.341,0.226,0.512,0.34
				c3.519,2.331,4.692,6.732,2.868,10.335c-0.288,3.711-0.767,7.821-2.526,10.996c-0.668,7.314-1.113,14.636-1.564,21.967
				c-0.475,7.716-1.395,15.375-1.718,23.102c-0.056,1.349-2.037,1.347-2.094,0c-0.323-7.727-1.243-15.385-1.718-23.102
				c-0.451-7.33-0.896-14.652-1.564-21.965c-1.764-3.179-2.24-7.285-2.526-11C585.811,423.571,586.983,419.171,590.502,416.841z
				 M529.159,721.609c-0.653,2.117-1.332,4.226-2.009,6.336c-1.357,4.223-2.921,8.383-4.408,12.562
				c-2.899,8.139-5.797,16.279-8.696,24.419c0.157,0.239,0.313,0.478,0.469,0.717c4.26,6.514-3.386,13.872-9.903,11.25
				c-6.682-2.688-6.215-13.1,0.947-14.895c0.216-0.055,0.432-0.109,0.647-0.162c3.404-7.998,6.808-15.997,10.212-23.996
				c1.806-4.243,3.54-8.525,5.493-12.703c0.935-2,1.849-4.011,2.805-6c1.08-2.249,2.479-4.007,3.768-6.073
				c0.753-1.205,2.452-0.384,2.203,0.929C530.194,716.597,529.955,719.027,529.159,721.609z M636.9,662.674l-1.281-1.031
				c-0.191-0.159-0.395-0.306-0.582-0.468l-7.138-5.732l3.328,8.527c0.099,0.228,0.177,0.464,0.27,0.695
				c0,0,0.599,1.534,0.626,1.679c1.211,3.487,1.909,7.216,1.929,11.115c0.104,20.431-18.449,34.973-38.355,32.984
				c-17.532-1.751-30.361-15.009-30.447-32.644c-0.038-7.855,3.203-14.914,5.883-22.13c-7.731,20.814-46.413,14.16-56.97,1.031
				c-8.848-11.006-9.442-27.172-2.063-39.094c9.632-15.562,25.027-16.135,41.465-16.206c-11.325-3.799-20.422-13.637-23.323-25.223
				c-9.914-39.587,53.153-58.679,65.838-19.006l0.435,1.59c0.059,0.237,0.138,0.478,0.194,0.718l2.407,8.833l2.318-8.857
				c0.056-0.24,0.128-0.48,0.188-0.72c0,0,0.418-1.594,0.484-1.726c1.07-3.535,2.696-6.958,4.974-10.126
				c27.533-38.283,89.698,18.005,47.738,48.21l-1.376,0.902c-0.211,0.131-0.411,0.28-0.625,0.408l-7.659,5.018l9.143-0.531
				c0.243-0.026,0.494-0.026,0.744-0.042c0,0,1.627-0.099,1.786-0.077c18.387,2.522,36.488,19.696,34.887,39.504
				C689.721,664.964,655.644,677.738,636.9,662.674z M708.459,778.816c-3.446,2.66-9.464,2.056-11.543-2.205
				c-2.769-5.672-6.468-10.99-9.702-16.412c-3.156-5.293-6.286-10.601-9.389-15.927c-3.106-5.329-6.056-10.76-9.469-15.9
				c-3.338-5.028-7.402-10.101-9.71-15.698c-0.833-2.018,2.085-3.308,3.446-2.006c4.373,4.183,7.655,9.937,11.209,14.812
				c3.58,4.911,7.667,9.451,11.62,14.063c3.858,4.501,7.737,8.981,11.639,13.444c4.128,4.721,8.094,9.836,12.694,14.104
				C712.739,770.324,712.028,776.062,708.459,778.816z M734.571,577.167c-4.792,1.885-9.582,4.758-14.629,5.87
				c-1.833,0.404-3.612-1.985-1.975-3.392c3.986-3.428,9.085-5.47,13.511-8.261c4.481-2.826,9.189-5.348,13.828-7.911
				c8.968-4.954,18.033-9.736,27.057-14.585c0.234-0.642,0.391-1.309,0.718-1.953c2.096-4.124,6.972-4.366,10.665-2.795
				c0.208,0.087,0.415,0.176,0.623,0.264c2.803,1.192,3.775,5.095,3.149,7.738c-0.063,0.267-0.126,0.533-0.189,0.8
				c-1.046,4.418-5.557,6.139-9.589,5.443c-0.356-0.061-0.642-0.219-0.953-0.324c-9.083,4.218-18.141,8.502-27.272,12.613
				C744.57,572.899,739.616,575.183,734.571,577.167z"/>
			<path style="fill:#DDA8B6;" d="M585.222,608.068c-12.284,23.281,29.75,31.96,29.821,7.06
				C615.086,599.195,592.524,594.23,585.222,608.068z"/>
			<path style="fill:#DDA8B6;" d="M640.742,567.161c0.401-0.48,0.893-0.999,1.203-1.549c0.532-0.942,0.408-1.856,0.254-2.863
				c-0.164-1.065-1.45-1.923-2.478-1.886c-0.879,0.032-1.676,0.159-2.391,0.698c-0.519,0.393-0.917,0.928-1.313,1.441
				c-0.745,0.964-1.468,1.947-2.182,2.934c-1.302,1.802-2.486,3.702-3.692,5.569c-1.175,1.818-2.352,3.64-3.465,5.496
				c-0.585,0.977-1.242,1.949-1.755,2.964c-0.518,1.027-0.923,2.122-1.423,3.16c-0.451,0.938,0.693,1.959,1.494,1.154
				c0.765-0.767,1.567-1.469,2.354-2.207c0.824-0.769,1.535-1.709,2.288-2.55c1.484-1.658,2.945-3.335,4.437-4.986
				c1.452-1.606,2.954-3.168,4.396-4.784C639.232,568.9,640.006,568.042,640.742,567.161z"/>
			<path style="fill:#DDA8B6;" d="M659.688,633.763c-2.391-0.787-4.794-1.539-7.172-2.363c-2.286-0.791-4.545-1.659-6.803-2.53
				c-2.404-0.924-4.865-1.743-7.193-2.845c-0.716-0.339-1.216,0.573-0.609,1.041c2.098,1.618,4.072,3.365,6.241,4.889
				c2.007,1.412,4.085,2.71,6.199,3.957c2.103,1.241,4.224,2.439,6.442,3.462c1.18,0.545,2.368,1.073,3.563,1.582
				c1.423,0.607,2.903,1.463,4.485,1.388c2.637-0.125,4.709-3.709,2.355-5.686C665.191,634.974,662.153,634.574,659.688,633.763z"/>
			<path style="fill:#DDA8B6;" d="M602.576,672.364c-0.756-2.374-1.611-4.713-2.317-7.106c-0.721-2.443-1.769-4.851-2.232-7.347
				c-0.119-0.643-1.122-0.479-1.122,0.152c0,1.39-0.178,2.694-0.345,4.07c-0.155,1.283-0.068,2.605-0.036,3.896
				c0.063,2.523,0.126,5.091,0.479,7.594c0.351,2.49,0.824,4.936,1.482,7.362c0.64,2.361,1.209,6.503,3.647,7.628
				c1.289,0.595,2.996,0.425,3.732-0.978c1.293-2.467-0.288-5.394-1.034-7.843C604.077,677.316,603.362,674.831,602.576,672.364z"/>
			<path style="fill:#DDA8B6;" d="M577.214,574.656c-1.561-1.923-3.121-3.848-4.682-5.771c-1.515-1.87-3.042-3.735-4.63-5.544
				c-0.792-0.9-1.616-1.774-2.426-2.661c-0.954-1.045-1.939-2.29-3.268-2.855c-1.411-0.601-2.794-0.712-4.087,0.288
				c-1.08,0.835-1.83,2.5-1.318,3.868c0.971,2.599,3.315,4.451,5.248,6.362c1.752,1.733,3.609,3.371,5.454,5.002
				c1.8,1.59,3.6,3.18,5.4,4.772c1.86,1.644,3.741,3.398,6.003,4.455c1.081,0.504,2.922-0.375,2.33-1.792
				C580.276,578.479,578.781,576.587,577.214,574.656z"/>
			<path style="fill:#DDA8B6;" d="M564.704,623.873c-0.733,0.266-1.454,0.27-2.201,0.426c-0.622,0.131-1.251,0.43-1.853,0.636
				c-1.324,0.456-2.648,0.91-3.971,1.366c-2.468,0.847-4.988,1.57-7.433,2.474c-2.456,0.908-4.901,1.848-7.352,2.772
				c-1.225,0.462-2.451,0.922-3.675,1.388c-0.86,0.327-1.804,0.51-2.613,0.946c-0.788,0.424-1.468,1.075-2.17,1.628
				c-1.347,1.059-1.42,3.39-0.615,4.766c0.904,1.544,2.736,2.201,4.443,1.808c2.717-0.625,5.065-2.381,7.47-3.803
				c2.354-1.392,4.722-2.764,7.064-4.176c2.259-1.36,4.429-2.895,6.661-4.304c1.117-0.704,2.234-1.41,3.352-2.116
				c0.549-0.345,1.168-0.656,1.676-1.057c0.611-0.484,1.083-1.069,1.758-1.481C565.891,624.754,565.473,623.596,564.704,623.873z"/>
		</g>
    </g>
</g>
</svg>
